<mxfile host="Electron" agent="Mozilla/5.0 (Windows NT 10.0; Win64; x64) AppleWebKit/537.36 (KHTML, like Gecko) draw.io/27.0.2 Chrome/134.0.6998.205 Electron/35.3.0 Safari/537.36" version="27.0.2">
  <diagram id="prtHgNgQTEPvFCAcTncT" name="Page-1">
    <mxGraphModel dx="1642" dy="1654" grid="1" gridSize="10" guides="1" tooltips="1" connect="1" arrows="1" fold="1" page="1" pageScale="1" pageWidth="827" pageHeight="1169" math="0" shadow="0">
      <root>
        <mxCell id="0" />
        <mxCell id="1" parent="0" />
        <mxCell id="GKyrWgscZpLBKZ8RzpGq-29" value="" style="rounded=1;whiteSpace=wrap;html=1;fillColor=#e1d5e7;strokeColor=#9673a6;arcSize=9;" vertex="1" parent="1">
          <mxGeometry x="180" y="130" width="830" height="80" as="geometry" />
        </mxCell>
        <mxCell id="GKyrWgscZpLBKZ8RzpGq-25" value="" style="rounded=1;whiteSpace=wrap;html=1;fillColor=#d5e8d4;strokeColor=#82b366;arcSize=4;" vertex="1" parent="1">
          <mxGeometry x="100" y="50" width="620" height="350" as="geometry" />
        </mxCell>
        <mxCell id="GKyrWgscZpLBKZ8RzpGq-18" value="" style="rounded=1;whiteSpace=wrap;html=1;fillColor=#f5f5f5;fontColor=#333333;strokeColor=#666666;arcSize=4;" vertex="1" parent="1">
          <mxGeometry x="650" y="250" width="360" height="340" as="geometry" />
        </mxCell>
        <mxCell id="GKyrWgscZpLBKZ8RzpGq-12" value="" style="rounded=1;whiteSpace=wrap;html=1;fillColor=#f5f5f5;fontColor=#333333;strokeColor=#666666;arcSize=7;" vertex="1" parent="1">
          <mxGeometry x="-130" y="245" width="270" height="340" as="geometry" />
        </mxCell>
        <mxCell id="GKyrWgscZpLBKZ8RzpGq-1" value="" style="shape=image;verticalLabelPosition=bottom;labelBackgroundColor=default;verticalAlign=top;aspect=fixed;imageAspect=0;image=data:image/png,iVBORw0KGgoAAAANSUhEUgAAApEAAAIVCAYAAACJCqQFAAAAAXNSR0IArs4c6QAAAARnQU1BAACxjwv8YQUAAAAJcEhZcwAADsMAAA7DAcdvqGQAAE4RSURBVHhe7d0PdFTXYe/7nwABSf2v6YuVP3aRLQlEsJz7CGkjpesRxTGrUtQUcWM54aaE92jRaruekW5r36gpCkskxc9+XRJed6VXcvUeJSnJUrKApgrKk0MI995ITkPIshUMSAOIYseRkzQ2OA0I43lnn7PPzJnRjDRH6M/M6PvBxzp7nzNnzvw785u995kpuHplJCpHNBqNTYllt5hQH/wLAACA3GJyXEFBgS15/PLEv958sN6dfn152E2DZmNvvvmm+9fkQzPv1/t/g/PBvwAAAMhdwYDo/w1OxqJFiXUF//7aWScLegHyzTf91sdgoPSneJA0k+HMuX8BAACQu5xI6P0NhEQ/NC5atCjhr/OfN//6L087mTCqGzfedKYbsfBoAqU7b/4FwqPzn/vX8P8CAAAgd5lw6P+NhURnZlHBInd+8WLvrz+ZdQqu/NsLURMg33jjDTdIvnHjDTc8xkJkLDwmTob9AwAAgBzh5zgjHh7dP27Zn/zAaALkksVLtGTJYlv2/ha89vNTURMg33jjhvY88d+8LQAAAADWf27631W4pNANkrEQ+ctXhqLXr1/XdSdIPvm3f6/2vZ12dQAAACx0zTsa9X/++R9p6dLCxCDpdU/LHQ8JAAAAJPPOm/FPxPamRfECAxwBAAAwkX8C9o03vTBpGiHdlsg3o16QBAAAAJIlfoNPrCUy8YxrAAAAIMgPjm6Xttv4aFsiCZEAAABIxw2P7hT/+seCl//1RHT8+nVdu3ZNX/xvBzI6O3vgO/+ks9/u0KLLEac0Vfgs0Ju3lWrVR5pU9eE/tHUAAADIBebs7E//Ub2WLVvqnqFtJvO9kQU/ufiDWIj8u86vTBkiTYAsOL5Vle9+1dZkZvClOxRdv48gCQAAkENMiPyj//SHWr58mfc1P4Xe1/wsisZ+1tCuOYUzz7RnHiCXvU2q7ZfeuV4feNerOtW/1y4AAABArjBZ0R8X6Xdnhx4TuejKeV2PLtGbt9wjPXhQWv//SoW32aUBy98u1R2T3vF7ii5ertdu3K43r1yyCwEAADAbzE8W/vCHP7Slicwy/+cOMxXPi/H50CHy6ptL9cs33qbxdf+3rv/bsJMqC6X3/Kldai2/0wmQ35FuL1O0v16vjT6r8eiySa6jT42B32o0U2OfXZTArPdB7TVDMSN79UF/flITt/3B4IUy3s58Sd7/LNrXrL/vAABYeE6cOKHKD/5eyiBp6swys04YwRZIb3IioF02ScBLtEhRLV/0axVc+4Vu3LHGPWlGv7naLnW8pUj6AydA3lai6Hc26/XXfuEGyKlVqWMkvnOdNbY6ndId+l70e9rhXH1CuEwpuO0juq+pTAV+Sk3YTraK7/9Ih9T06b2an9yWdD/nxH0HAMDC8r73vU+D3/ufE4KkHyDNMrNOGF6GCrZIRuMhMlPLFl3TbYuvqOD7j+n6TwZ14+VBqeRhqfxPnABpWyBvvdcNkHrPn+utH+uVlrzFnKOtwoLrdivzqUadThKr6jrsRKLcU7rjr7V9oEffpPUPAACkkRwkbyZAGskB0ggdIm9EFzvTIl0dv6FfP//3Gh/8rPStj0mvnpU+etQJkPfEAqTe+b/pyvHHVPDGr3THkle1pGAav8/tdpn63dDDttLwW8XM31p1aUBNZc56qfvBE5V+VA1VXTrsrprYutbXGOg6Dm4rYT/2Bi7jXb6x8YPOskY3mKbehr2evvh2zKLIXnM5f7thk+HE6w7up38dnonXP7Fb37+c3VbC9k198v1st+lvJuU2Itr7Qb8u3TAFAAAw04JB8mYCZDqhQ+R4tFC/eON/0dXoW9zyr998i978+Y+kDz4V68L2A+Rr/Y1a/Na369bCq7py41Y3gKZnw0lCAHFCSlmT7jvipd5/UI8TYpLVqDN6RNv9Lt8p+8EnV9Ppp2xnm12fjwfFSfdjQD9+zz84yzqdvUm3DcO5jZ+X/sEsO7JdXbUF+rSzNXddpzzQ9KS93elF9n5eXVUN+misCzl43Yn7GR3p0I9rAyEveP1ev3jg9vWowe/yPyJ9PnYhf/tm2WT3c5pt9D2ppvuO2MtnMEwBAADkhNAh0rQmLi/4tTuZLuro0t/Ujdqj0u2rJgTIZb9drVvWP6lrd/9HveGETxNA0wuOW/TCmCLD+nFVhx61wcPtyvVmZ0CV3lNmZ4P6Gm2QNa1u1pT7UaWGeKpLvQ2Xcxv/YYfcNWs2uoEsdjm3/GMNxwJfUDxglzXdpyPfs9twBbZh9tPZykY/qJXu0F9vH9ALI7YcvP7gMvdygRBf26WB2IWSbls66bZR9h5VddVOo5UVAADcjGAXdrBre6aEDpFmXONtS664k+mi/o33/rF0/de60f8fdf031+n6olv12v+3XYuX/oaWvq1Ur3+vVdfOe+1r4U4mn0WRb6pn4D6tTM5Gpju2VjriBtkRdVTZ+jBmYhsTpAjYNy2i4R/bWdd2u892mlaTYYptuCffmNbbT7vhku5sAABmX/IYyOQxkjMhdIiMKViiwvI/0tLXntONb6zXldHv6dV/eUqvHvqYrl/4pgpH/l6/PPgx/fo5ry3Obb1cdNWdz1jpSt030KQnbfBwu3K92Zvgd/mmCGMjL2ig6j1yGyjdoOnWhtuPdNuYC2Y/nT3zxno6nED7+a5Ay6QG1OOfkePum11mLxfvwp6GKbZRuuN7GnES9Y9TN7UCAIAZku4kmpkOktMIkbY90Xw35JLf0JI71+r6XX+oJWv/i5aV1Knwjnt0e+Vn9MZ7dmjRnet064f36pZ3vEe3Lr4Sv2xKga5QZ/K6P2vUaccOmrpPq0Gpu7NrtHG7vXzKpq7gtj+v94ykGZtX86g61KQys96nX9B9sVbETPfDkXYbc8E78/zHdj8L3DGKwbBcpfte8FoECxKCtHc5506y95EzpbwfJ7uf02wj1rXvdcX/Nd8HBADArFq3bt2EAOnzg6RZ52YVXLrwbHR8/LquXr2mp7t7pvzt7P+n5UP6P+45Lt3/l4pev6JoyWZdee4ftKz0Y3rjFy9o2U/79Ub5n+rKd5q0+LYVuu13dij6r9/S68Pf0KF/vV/bHv+u3VIOM13WZS/or2esa3ku9KnRDdB8ryMAAMic+e3shx+qjf12tv/72aFbIssfbNbgS3co+sLf6epbSnXttZc0fumY3njxu3rLUunyq//mfn/kW+7/E/c7JaO/elmv//xf9YOXbtXqDc12K7mt78mmeJc1AADAAhS6JdIY+M4/6fQzT+mNy//qnkBhmBNu3pT3HZKG6bhetuiqrkXfooJb79F9G/5cVR/+Q3dZ7jHfdVimptj4RnMCSS61Qhq0RAIAgPDStUROK0QCAABgYZix7mwAAACAEAkAAIDQCJEAAAAIjRAJAACA0AiRAAAACI0QCQAAgNAIkQAAAAhtwvdE7mp7wi4CAADAQrer9TG+JxIAAAAzgxAJAACA0AiRAAAACI0QCQAAgNAIkQAAAAiNEAkAAIDQCJEAAAAIjRAJAACA0AiRAAAACI0QCQAAgNBu6mcPx8bG7FzuKioqsnMAAABIlu5nD286RK5cudKWcs/w8DAhEgAAYBKEyBRMiET+4gMCAAA3jxCZAi2R6ZnHNpfvm1zffwAAskW6EMmJNQAAAAiNEAkAAIDQCJEAAAAIbe5CZKRDVQUFKghMjX122WTM5ao6FLFFAAAAzL+5bYmsbNdINKqomUbaNVSbYZCcb+e/qAfvuEN3xKYmPWMXzRmzDw9+UeeT57NFqn3KdD+z/bYBAIAJ5q87u7RJAyZI7vZaGSMdVYFWyip1uE2PEXVsadbgYLPKnPoqpzL1enPg/X+jk6++qlfN9DXpofkMOvf+mZ555s90ry1mrUz3M1duDwAAiJnfMZGlq1QxeFojZrZpwGuhNNORCjU/aZooS9W0v12VtgVzoKk0zXpz7MGPausPhnXOtpp9sSnQOmnqklss3fWa1PSgX3+HmvymzIT1H9QXTTKdsN3z+mLjX+kHP/grrXXWe3D37sSWu+TLu9UP2jpnmq/Aa2/H+aTb3/SMc3ti84H1km+nc2Oy4nYAAIAJsufEmuCYydouaehs6nGQma43i85/8Qnte/9KlZiCE3iGP2paKDv0oBP3mtb+ldZ8zWuxPPk3p/SQnxZ/cEorO/2WzK3a95AJh2b9YT3mt3CerNehRhuUErZ7r/6s82/0ftsa+sx/+i13k0p3eSeUNf7VGn3N1n9tjRN47SXmjX/73dveKPnzTwSDYdLt/P1vZd/tAAAArvkNkZGzGqpcrTITDMt61DBiWxhH2lVpV0mQ6XqzwbaOmRaxtYfqddLvfnUCzyMPums46XJEpwLle3+/Xu/f900n6jneX6/f9/trTUumTmnkuLO+9ukhv6XNCaA/MC2cZp3gdtMx15fq8veWaY1b77WEPthhgug8829/yUonJAbm3YVpZOPtAAAArnkMkX1qLGtWxc4mlZpiZYPq3BknK/b2aNCb9dgub9dk680m2zrmtvjN5Pi94HbdKWRQSnn5B9Xhzn9U33QDpu1Wzzn5cjsAAMg/cxsi7Qky3kkxu7V6JKrOGqe+tEk7K+LLtpyuiLcwmmXbu1Tr1Ff11qVfLxuYlrMf/JWesknn/LcO6QdbPzoxFD7zTe0zrXHrE9efkt9K6Uu6vpjzX1STOzjShLCT+pv3n9JILg0m9G9nrt8OAADy2NyFSHM2tn9CjDsNqMm2KBo1nfFlA52dGhiwLZSBZebEmsnWm39O2Dn5Nzr1kNe9vNaM5+uwETLQHX7HQ9LX3NbMxPXdKd3JI/f+mR7b6nVdP/iPv7CVaS7vhEv91Vpbt1aH6jv1ZzPWdDqJ4G2cbqth8HZ+69b5uR0AAGBKBZcuPBsdH7+uq1ev6enuHu1qe8IumtrY2JhWrlxpS7lneHhYRUVFtjSLzNnH5lySHPoaG/PYzsl9M0tyff8BAMgWu1of08MP1Wr58mVaurTQnQoLC7Po7GwAAADkDELkXODLtAEAQJ4hRAIAACC0BT8mEgAAYKGYzvkC6cZELugQCQAAsFBM94RiTqwBAADAjCFEAgAAIDRCJAAAAEIjRAIAACA0QiQAAABCI0QCAAAgNEIkAAAAQiNEAgAAIDRCJAAAAEIjRAIAACA0QiQAAABCWxghMtKhqqoORWwRAAAANyfrQmSko0oFBQWxqapjjqKfCZqx621Un62eEYRYAACQZ7IqRJoAWdbToJFoVFF3GlHD6d65CV+lTRoYaVdlZbtz/Z2qsdUAAACYKItCZJ+ebJba9zep1NY4yU5NnU7ZtuR1NMZbCRNbLKvkNli66zWqscqvL1BjoEmx1738xPqUEq4zcJl015Hc2hgrR9SxpVmDg80qc9ads5ZVAACAWVRw6cKz0fHx67p69Zqe7u7RrrYn7KKpjY2NaeXKlbY0uXPnztm51Eqi/6yqLdL+gWCItEwgK2tWxZGoOlM1EfY1quDwRkUfPeus16OGkQE1mY2Y+lrpyMhq7Q5e3tTvXq2R5Osy1+PvQ/J1+pfZL21Jdx3B/U/eVorbNtV9AgAAMJWSkhI7N7nh4WEVFRXZUuZ2tT6mhx+q1fLly7R0aaE7FRYWzm2InPRGJgStiDqqytQ86NSb7mUT3JJDmA15ZhVXyvX61FiwW6u/3aCenYH6NKFu0uDnl6dzHemuDwAA4CZMma8CZjpEZk93dukqVQz2qNft7S1V00BUUTNG0V2YxIQytzXQjp1Mtx4AAABmRRaNiazRo+1S85YMz2KubFCdbdaL9PbEWySD+g6ry6y3wpZnQ/A6Bk9rxKuduE+BZQAAALkuq87OLm0a0EhDj3sCinvSSlmz1FA3sQu4tEk7K7wTVcx6W05XxFsi7Qks7uXNWMVMu5Dd1k3/BJgpvuIn1XU4+7S/fUi1tj5hn8z+bu9yl3FiDQAAyAfZMyZyJszF2EPGNwIAgCzBmEgAAADklPwKkeYLw2e7hXAurgMAACDL0RIJAACA0AiRAAAACI0QCQAAgNAIkQAAAAiNEAkAAIDQCJEAAAAIjRAJAACA0AiRAAAACI0QCQAAgNCy7rezP/vZz9o5AADy3xe+8AU7l5sOHjxo5zDTNm3aZOfSm8/fzs7KEJnrLygAADKRD+95JkSuW7fOljBTTpw4kfUhku5sAAAAhEaIBAAAQGiESAAAAIRGiAQAAEBohEgAAHJFpENVVR2K2GJOGO1WfX23Rm0xrWMtWrFihTu1HLN1mch0+5hxhEgAALJQVUGBCmJTo/ps/ZTSBc0J9RF1VFWpIysS6TG1bD2j1uMXdfHiRe2pttVhESjnFCESAIBsVNmukWhUUTMdkWpvtgWytE4N6lGvv5FIr1NqUF2pLc+n0fM6o3LdW2zLeej555+3cxNNtiybESIBAMh2NRu1ffC0RmzRZVoWJ7RURtSxpVmDg80qc+qrEpoZS1XXIPX4KXLktNRQ59SaTVXFWz1norvctAjarukV69t00lYn1K+oV7fbZHhMLe46B7TV1Nd3639218e6tmPrJbcyTmh1HFV3s7Odk21a71yu3tt4Vnj99df1pS99Sf39/bYmztSZZWadXEOIBAAgy0U6dqurcrXKbFlOZGwsa1bFEa+lcqR9SLWNJkaWqml/uyptK+ZAU2IzY+mqCg2e9qJo3+EuVaxyljthdEtzhY7YVs8jFUlhNTQvFJbv87qmLx5v1dpYfUSPmDq3vk69zSYEVmuPWWdtq46b+kPb9HvbDnnrmGlfudo6MxkkWaxt7fHtHNqWPc2at9xyiz73uc/pmWeeSQiSZt7UmWVmnVxDiAQAIBvZ1kTTOljW06CRgSa31dAVOashJyg+WuMVS+saVNl1eOpxk6ZF010vorND27XRXL50lSrUpVrbmlnT2Sm72ekxXdNOkGtMHtfodlnb1kYzmdbHkxFdsIsTBFsstx6QzpzP+XGOyUEy1wOkQYgEACAbBcdEBgPkTanRxu1DOtvXq56KjTYs1qjTvZ6NOuyG1hAn8YTltzbGpj2acA6NCZDre1VnT7KJt2TmvmCQzPUAaRAiAQDINab1cLBZT9q0F+nt0eB2PxQ6ksdPBtRsrFBzbbMq3GZIR6RDje7YSRMmR9Re6YRMU3THXE4jUBbfq/KTvTpqmw5Hj/Z6YyLd+jZl1DO9tk4P2N7o2OWNQMtlQn1QutbNLOEHyVwPkAYhEgCAnOMEvpF2DdXa7m4zprHThsLSJu3cbrqnk0+ssUyXtvPPz5AmkKq5zDuppqBMPQ37lTSUMqRq7THjGNd73dHNkXLbkuiNfTyz1XZTmynV1/EUb9Mj5d7JMQmXd+rbW8/EusPj2w0wl93sdZln04k1yUx4zPUAaRRcuvBsdHz8uq5evaanu3u0q+0Ju2hqY2NjWrlypS1N7ty5cyopKbGl9D772c/qC1/4gi0BAJC/8uE97+DBg1q3bp0tYaacOHFCmzZtsqX0Ms1XxvDwsIqKimwpc7taH9PDD9Vq+fJlWrq00J0KCwtpiQQAAEB4hEgAAACERogEAABAaFk5JhIAgIUiH8ZEYnZk+5jIrAuRAAAAyAwn1gAAACCnECIBAAAQGiESAAAAoREiAQAAEBohEgAAAKERIgEAABAaIRIAAAChESIBAAAQGiESAAAAoREiAQAAEBohEgAAAKERIgEAABAaIRIAAAChESIBAAAQWsGlC89Gx8ev6+rVa3q6u0e72p6wi6Y2NjamlStX2tLkzp07p5KSElvCbFq1ys5gUsPDDYpGe2wJAIDcEyZfDQ8Pq6ioyJYyt6v1MT38UK2WL1+mpUsL3amwsJAQmY9MiHSeJ5jU19yJEBnOd7/7XTuH2fahD33IziFTP/zhD+3c7Hnf+95n55AJjhnpzdRrnBCJGUWIzAQhcjrMG8Ktt95qS5gtV65cIUROgwmRsxnyZnv7+YhjRmoz+RqfzxDJmEgAQF557bXXZnwCMBEhEgAAAKERIgEAABAaYyLz0HTGRD722H+xc/PviSf+Lzs3mxgTOR2Mb5objImcHn/M4mx0P99+++2MiZwGjhmpMSYyl7xyTHv3HtMrtgjMGp5r6V0+rf7+07psixOkWj7VZTC95xzPU8yXTF/TL31fX//6193p+y/ZOmSd3A2Rp76qlpaW+PTVU3YBcJPMG2zgubX3mH2r5Y13ZkwnGBImXQnHPP/5+S+v26VJeL5aw/pG94B+YUvz7xUd2+s8dpk8Ngv2MXxJ3x98TWs2fFwf//jH9bu3TvX6v6zT/U7gzOQYwbFkRuVkiHzl2F61fFn61J492mOnT2lIxEjMhK+2P6/7m/3n1qdUNPYzuwQz4rbV2rBhtW6zxYxM5zJZ5Fe/+pWdm2iyZcnc52TzBr3jHRvUbI99O37nFrs0yZ3V2rGjWnfa4kL0i4FuPf74Qb1gy1nhlVN6Xu91/j2vU1Olw4X6GF6+rNd0u27L9AV/+SVd0t3Ov0t6aap0OEvHkpl6jeeaxf+56Y933bjxpt5444ZO/uiUPlT9oF00NXPH/NZv/ZYtTe6Xv/yl3va2t9nSzfmXb3xfJX/yx/qd37AVjjvvu897oZlPbp/v0j8dPaqjR3+ud37Eqf/VqL7/Y6niA/foN1ItN3V/P6pfj3ap6x8DdZ//hn59/wd0T+B6csF//a/OwTPkx+4PfvDbdm7+fe97mT8Hp8+8rbygXbse8ooBPz46qnv/0D6fnP/fd5+Ze0XH/v4f9dxPz+lZ57lzavFd+vU3/lbfv/Ujchc7H2G+2vIV/WxVkcbOpXqundJi/7mUw8+t0dFRLVu2zJY8l0/365+P/0gvvPCCXnixQHeVvF3LzKf9fz6uH5m6F67o9vfcpduu/VznXpTuevvPdfz4z/X25PXO/UzXlt2pElNvt63ky9i/4z8/ruPPmm2/oCu3v0d3mXeEhOt8UQV3lejtibs6L27cuKGf/OQn7vxb3vIW96/PHBd/4bxYb3PeLRctin+mHx8fV3FxsS0lCR7PAuVF7vHLPNeO6ufvdJ6X8o5r97rrmednu/7RfS46y99eol85u+Ruw/TqtB/V4rt+rW/8o38cDGzHffqnfi6bD/Sf7/ond92jpxbrfmd7v0pR570WZv85//LLL+td73qXrl275pbfevda/d7qRTp7Ripfe7fe6tZOz/Lly2PbT2ZaFiccC9Lc1lf+5Rv6cdHHVKlva/Df79cH3JW8x+foYlv27y/7mJjHcD7v15sx4Zjhv6YnHCf81+xL+v4/n9TPdFkvmvoXxzX+4lm9fPlnOueUXyy4SyVJL+zL53+kF2//X1Va8IIi4/5yZztf79cL/vrudf1I4785rh8Nesefa6mOXd4mQ5nx13hIYfKV2ZdbbknzwXMS3z32jO5bU6YlS5Zo8eLFsSknWyKf/2mR7vTe4ZM4L8T2fhV9yvuE3rxhTF9O6OaeZPlP+zVWYeo/oTVeDRaoivc+py+brsKE586dqv5kvAVoR3W5qj/yXj03ZNc5NaTn3vsRVcdex+a5NqaP2NaiPc336/mv5GG3lHNgfvbU7ar8uNftVHn7ZV0xB+/+U7q90qvbsOY1DaYc1JS43sc3rMmsdeDyKV2+y16m8m5dOmW6psy2LmuN3Y+Pb3Dqn82OLitzoP3t3/5tvfrqq+7B3mfmTZ1ZZta5KbHjlzN9ynlefjv4XDPdp27XjbfcmT5R6i9yQoi7aIf33E25nTTPZeeyX+kvivUIfapoTD9LVeddU15LeSxI+R7l3JvPS/evuVNrKt6rnz5/yj5Oa/SJ5g1S/3ece9t5vL5iekPsY2Lk5f2a7jX7bv2uORbctkYb3Pr/oP/wgXh5w+rko4Tz6r8k3f3u2/Tuu+7W5Usv2de9tx05xwdTc/rZS7p7wwat9sN2ymPX9MzJazxL5eaYyHcU6e12NsErr2jMeZP/sE2Bd665X+94LtDNPdnyQL3LdCOYA2vKAwHy2ZpP2DfLiiFv3Fm68bZrKvRe+/w5NfSc3lsReAKZ55psGDWT8+Hlpz+1B/58em45n65v1yUNfv37zoHaOWz/7u/q3aYryjngr363XeXdd+u2Sy+6yxMkrZex4GVuvc0Lnm73l9kPbyD+151wetmpm+6bwkxLfpOZ8TeX4PHr7UV6h511ud2nScc3wwmM7W44DHxwTrWddM9l55N8kVv/Vfc1sOYTznZS1Zlt5PvxNM2xwB16Ze83d2y1+1jc79xP9jI/DXRpO/fRJ03DRku7nr//k4n3VT7erzP1mrVd2U6GdA5Ad+nuy4Eu7dtW6wPmQ+zX+3Xp7g8oIX+mOnZ5S6Zl1l/jWSonQ2RR8IUHzJY1n3DC5Kdibw4TrXFbLYdOndLQc+9VMEO6nDdkf9yaN+VjK7fzad/9JH+XXnTfDLwD8rzwWy5i0829Kcy04JtMVry5OM/PT03orUkj5XN5jT7hzldoyA1KJuCkqlsIUh8L7qzeEbvPdjhJ75VTzzsB3Anv7n3zZScW/lTPB97M7rwz3Vev5On9OgOv2csvXXLC5yn1u8efQScWXtalwMDI22673c4lm/ljV9a9xudATobID5tW//bEF9Gprzpl82nNeYF+xy5wX7DvrXBeftZUy4NMN0/LXvkn5mLh2Bt8U3VbrwMt335rorXGeTKOffnLGtvw4cTnUdJzLUE+Pbcun9b3T5sDtjkgb9Ca215zDuHOJ3znoH7aHpHdg/zdd018czAtAYFWA3c9bzY8d1vx68xW/pvMnL653LlG9yv1c/HtTsj5lL4c/waCVNI9l53n8Vfdy5mA06wN7xjTK2dS1JniAjiepj0WxJiu7J/qvYFhBWbIQLxL+5S+6g4t+JSK+r+SeF+luq9z/X4N+5pN2UppurIv625/SIyZKoNd2i/p+4NS5ccrdfupZ+Ueqnypjl3TPgDFzctrfB7lZIg0n+7c8YzuJzJv+rJMGHReYM3mhezVtZsxJJ8IvpynWg5I9499Ofa8ajFnan/Snh15Z7U+YsdLxt50zRv0O97hjnFKlPhcc6d8/KoO541Ap/q97qhYl5E3Fum1QVP3dfWbcUe/m6p9wVmv8nbn4t56z16+/SbOmEy8Tq97LDu/xsO8scztm4s3njf4XPxqxC5yrPmECS3t6b8qKN1z2QmXzqd5W2e7YMtT1M1jV6t7dvbT/10/+9l/19OPP65vhPwRhlDSHgusVMMKYl3aToB0v3LEtvB+qiixoSTVfT2P9+vMCPGavW211tztdX33B5Og25WdNCQm1qXtBMivmwRpWjf9Y02gtTHlscsuu0lz/xqfP/xiTR6azi/WLDwz9Is15szWbxepeYF8DQe/PjE3+MWa6ZnXX6xZYMeCTHHMSI1frAHgDaL/CG8awELHsQALESESuAnmTG5GRADgWICFiBAJAMgrput5picAEzEmMg8xJjITMzQmcoEx45swNxgTGZ4Zszjb0o6JREocM9LLhzGRhMg85IVIE5IwOUIkACC3ESIxowoKGuwcpkKIBADkMkIkAAAAQpvPEMmJNQAAAAiNEAkAAIDQCJEAAAAIjRAJAACA0AiRAAAACI0QCQAAgNAIkQAAAAiNEAkAAIDQCJEAAAAIjRAJAACA0AiRAAAACI0QCQAAgNAIkQAAAAiNEAkAAIDQCJEAAAAIjRAJAACA0AouXXg2Oj5+XVevXtPT3T3a1faEXTS1sbExrVy50pYmd+7cOTsHAACAmVJSUmLnJjc8PKyioiJbytyu1sf08EO1Wr58mZYuLXSnwsLCuQuRAAAAmD8zHSLpzgYAAEBohEgAAACERogEgIUm0qGqqg5FbBEApiN7QqQ5qBUUqCAwNfbZZZOZjYMhB1gAWSLSUZVwXKzq4MgEIDtkV0tkZbtGolFFzTTSrqHaDIMkAOQhEyDLehrix8XoiBpO9/IBF0BWyN7u7NImDZggudtrEUz8NF4l78N4RB1bmjU42Kwy+wk99XpJl/dbGRNaP9NvEwDmXp+ebJba9zep1NY4B0Y1dTpl21vS0WiOXY3OmmmOke56jWqs8usTP5j3upefWA8Amcia74ksif6zqrZI+weCB8w+NRYc1sZop2psjauvUQWHNyra6dSag+SEy1n+eo+eVVXZae202+lrbJQ6N+pwcNvB7aTZJt91CWA6Un2H2/SOiZY5RpU1q+JIVOYwOEHCsa9HDSMDajIbMfW10pGR1dodvLyp371aI4Hr4ngH5I75+p5ImRB57uz/iJ567tvRpke2R1999dWMp7Nnz0YzFYlE7FwaI+3Rysr26Igteo5Et2u783+HWS5FndviTf66yZdLuZ7ZjinbbRnJ6wWXp9wXAAgv3bEv3DFxJNpeaY9Tpi7VMSrVsW/CeuZYWBlt/3ZSPcc8IGdNeSwJMLktVZ6bajL5cPB/HI7+6Ad9bl4cOX08OhoZiGb32dmRsxqqXK0y91O3+TQdHy/pHCwnSrtejTrd8USm9dF03XjdPwljMN0pqcUTAOZL6SpVDPao1x1RU6qmgeAxLUmmx0gAmEFZHCL71Gi6W3ba7pXKBtXZfpZIb48GvVnP4GmN2NmU6zkH2EZ3gJAJkyNqrxzSWZkDdLOeTDcOKLhNAJhzNXq0XWrekuE3RUx2jPT1HVaXWW+FLQPATciuEGlPZvEGeu/WaudTtTtep7RJOyviy7acroh/yjbLtnep1qmv6q1LvZ7ziV7NZXa7Zepp2K+mUidQmhN3av3rcyb/hJvgNjmxBsA8KW0a0EhDT/y46HywVkPdxDGSkx0jg8dVMx4y1RhLAJiGOT2xJtOBnwCQL9Id++bkmGi6udOdnAMgL4Q5lvDb2QAAAJh3hEgAyFfm+3ZphQQwSwiRAAAACI0QCQAAgNAIkQAAAAiNEAkAAIDQCJEAAAAIjRAJAACA0AiRAAAACI0QCQAAgNAIkQAAAAgt6347++DBg3YOALLbpk2b7Fx6N/vb2bsf32vnACw0Oz+zw86lN5+/nZ2VIXLdunW2BADZ6cSJE3MWIjN5IwGQXzJ97c9niKQ7GwAAAKERIgEAABAaIRIAAAChESIBAAAQWu6FyNFu1dd3a9QWMQnuKwAAMEtytyWSgAQAADBvcjdEFm/ToUPbVGyLAHAznn/+eTs30WTLAGChyo0QaVodV6zQCjOtb9NJv862RI5213vL3Kle3X7zZPByZjLr28t1t5i6Fh1zV0txeXe9FrXUe/Utx0bVHZt3t554uXStogn74O/bMbU45Xp/R911vGXT2pek5bH6oJT7AcB4/fXX9aUvfUn9/f22Js7UmWVmHQBAXA6ESCdwOcGxfN9FXbzoTMdbtdYu8RVvO+QtM9O+crV1mgQ1yeVOtimywdTvUbVTTH15s94Zlbabus06sLVZ8uef8sJoc1u59tnL7SuP6IJ3qQCzDxE94m/7eJ16m03YrNYeZ3+cK3LWcAJhc6/qjh/StuJp7ktwuXs5s44XkD3p9gOAccstt+hzn/ucnnnmmYQgaeZNnVlm1gEAxGV/iBw9rzNrW9Vo0l46wVa2rQekM+edkDfJ5ZLrU13e1K+t0wOmv/yeUq0NzptlxfeqXAe01bZmVu/xAmmwJbH+yRM6465jt21aUU/asFm8Te2tZ5xl69Vb1+4GSNd09sXw64zqDdrsXPP5F23Z3Bfp9gOAKzlIEiABYHK5OybSZ0LXetOS57ey2RbHCxGv23sq6S4/pWrtcVv2NqjfDWdemAy2JB566G1uYD1uy97khU2j+N5yO2dNe18yMMl+APAEgyQBEgAml/0h0rT4nezVUdv3Onq0d2I4DLTCxZab1rjA5SaV6vJTcQJfizuw0ITJ42pde0bnk6/L3fc2+T3SiY6pZau07+I+lbc1x8coTmdfkh3r1wGznbtsedL9ABDkB0kCJABMLgdaIp2QZsYGrve6Ypsj5Ymtc8Xb9Eh5m9bbrtr48sTLxU7ISZb28lNwgpmzcW/byV3SMd7YxzNb7T6YyT0BxwmQK0yCNK2B/n626Nh098VwQqJ/OXfTCWeup9sPAKmY8EiABIDJFVy68Gx0fPy6rl69pqe7e7Sr7Qm7aGpjY2NauXKlLU3u3LlzKikpsaX0Dh48qHXr1tnSDDrWohX9G3RxTx524ppucHOuDV95BMyZEydOaNOmTbaUXrpjX6bHxN2P79XOz+ywJQALRaav/UyPJcbw8LCKiopsKXO7Wh/Tww/VavnyZVq6tNCdCgsL82BM5CSOuV/jYye34Y9RgAAAADMhr0Nk9Z4FciIJX7wOAADmWF6HSAAAAMyOrBwTCQC5gDGRAGZLLoyJzLoQCQD5hBAJYDo4sQYAAAB5iRAJAACA0AiRAAAACI0QCQAAgNAIkQAAAAiNs7Ox4PA1UpgpfMUPgNnCV/wEECKRLWbt99mxoPDb2QBmE1/xAwAAgLxEiAQAAEBohEgAAACERogEAABAaAs7RPY1qqCgwJ0a+2xdNot0qKqqQxFbBAAAmC9ZFyKrbKgLFe6mFa761Fg7pPaRqKLRqDprbPVsmosQSNAMb7Rb9StWqL571FY4TF19twI10zeT2wIAIEtkX0tkZbtGnFBngl10pF1DtbPUShg5qyFVaFWpLc+F0iYNDDRpLq8SGVq7WeW9zQrmyBlTvE2HDm1TsS0iOz3//PN2bqLJlgHAQpXd3dkmdJkgudtrWYt0VAVaKavU4Ta3RdSxpVmDg80qc+qrnMrU6wX1qbHMuYy6VGvWWVuvtVUd6mg06zc6Sx2mRS+2jUBdVaMaq7z6xj7numPzZoVECfthWgf9VsKptpPcmphcdmR6X7iXja0XvB2pbm+q+2qhKFXjI+Vq6zxmywG2pXKFP9lWxdHu+sQ6t8WxRS318XVbzOYSWiKPqcW/THB5rK5+doIsJvX666/rS1/6kvr7+21NnKkzy8w6AIC47B8TWbpKFYOnNWJmmwa8FkozHalQ85Mm/pSqaX+7Km0L5kBTaZr1gmrU6YRT/zLRnvVa7gSv0xvNZTqdpV7IrDjibWOkfUi1fkocHNLq/Wa729VVu0Xy523QjXFC2ZbmCh2x+3GkwrsNMZluJ43M7ouRSW5H8PbCVb1H+7TVC3YxTuhb36byfRd18aIzHW/VWlPtBL/mtnLtM3XOtK88ogum/uQZlbbbdfdt1oGtLc4WfKPqrt8q50LecmfaU222H9EjtnzxeJ16m+n6nmu33HKLPve5z+mZZ55JCJJm3tSZZWYdAEBcbp1YE2xVq+2Shs6mDlyZrhfkBK9H/TRluroD5dK6BlV2HfZa7CobVGf6o8tWO2EtMG+WBZnw67Z0ei19NZ1JYS3T7aSTyW2c9HYEbq9hWn2jA3Iy+IJW3diqM08FQtzoeZ1Z26rGalv2Fd+rch3Q1hVeSKzes0fuKmvr9IDfb129QZt1RudftOXRo+pV0rbM9t3t2JZIJ7CePGkDKeZUcpAkQALA5LI/RLpBaLXKTGgq61GDPRHGjJdMGbgyXW/W1ajTXH90ow67Yc92G8+ErLmNeah4m9rretV51JYvRHTSziaq1h639XCD+t0AGGxxDMkJqcf9lkh3soEUcy4YJAmQADC5LA+Rtlt5pz0ZxW+xc0R6ezTozXpsl7drsvUy4XahN8vvBXe3sX1juG5fJ+g1ugMMTZgcUXvlkM5e9BZlJHB7Ut6GTO6LMLfDbdlcyGMi44q3PSK1tXnh0bQmnuzV0eT+5dFutbiDF02YPK7WtYEWR9+xfh0wLZN32XLxA6pTmxKGXZoWzZNJdZhXfpAkQALA5LIvRNqTQrwTQXZr9Yj9+p3SJu2siC/bcroi3vpmlm33TpKp6q1Lv17GvDGT5sxws40yM7Yx7HcAOQFOzWX2dpSpp2G/mlbYZVNxbs9+M34x3W3I9L7oKLv527EgOcFw3+bAfLna1ge6m021E/6cSnsyzHr11rVrmwmLTiBc73dNm+GPCWdlF2tbe6vObLXLnanlmLP944l1/ok7mD8mPBIgAWByBZcuPBsdH7+uq1ev6enuHu1qe8IumtrY2JhWrlxpS5M7d+6cSkpKbAmYPwcPHtS6detsKaRjLVrRv0EX96TocDZnWTdL7Xydz4Jw4sQJbdq0yZbSS3fsy/SYuPvxvdr5mR22BGChyPS1HyZfDQ8Pq6ioyJYyt6v1MT38UK2WL1+mpUsL3amwsDDHTqwB5sGxlkAroWldTBUgAQBYYAiRwBSq92R40gtfKg4AWEAIkQAAAAiNMZFYcMyYSGAmMCYSwGzJhTGRhEgAmEWESADTwYk1AAAAyEuESAAAAIRGiAQAAEBohEgAAACERogEAABAaFl3drY5GwkAcsHNnDnJ2dkAJsNX/ARk6wHzypUr+tu//Vv9xV/8hW699VZbO3t+8pOf6F3vepctzb9s2x8gF5jXTff+rxEiAcyaXAiRC7o72wTIxsZGN0SZEGnKAAAAmNqCDZF+gPzkJz+p7du36y//8i8JkgAAABlakCEyGCD/4A/+wK0z3fIESQAAgMws2JZI0/roB0ifHyRffvllWwMAAIBUFmSINCfQfOhDH7KlRCZIZnqyEAAAwEK1oE+sAQAAwPTkT4iMdKiqoEBVHRFb4TB1VR0K1GSxiDqqClTg3IbkKeE2IT/Y52vCY5xTz1cAwEKXXy2RldtV0bNFuZm5StU0EFU06kwj7aqsbNeImXemgaZSuw7yQ58ay3rUMGIf7+gRVZwecZ4CTRoYaHKeCQAAZL88685erUd3Vqj5yT5bjot0VAVa96q8oOm2/DSq0bYANvbFWwMb/U0ktBjZy80pb59i+2MCSME9umdtfL+za3+RmQqtiqXFGnV21tjno2mJnNgq7T6+PLYAgCySf2Miazp1RLWB0OUpbRqwrT7OdCQQNAeHtHq/qduurtotkj+/27yZmxaj09rpX26kQT1b5rq7sVRNO539OWz3t++wuh7eoHf+yO63e3vMvjc6e5sN+4up1Wjj9i7VmjCY/ER1BVqlncdWle16tIbHFgCQXfLyxJqaR9s15IbAgGArTm2XNHTWW17ZoDrTIlS2WpXBebMsclZDsm/2Zipr1uDgaY2YZXOpZqO2dx12IqLJkF3a/uDq+H4bZrmzp2ePZsn+Yko1nTYMbjzsPVapwqR5ztYOqX1/k0qz5bkIAICVlyHSjC3b39CjJ3tt2bwZB8egmTGHdtGUAmMTvalTNXbR3PFarg739elw13ZtXG+rU8mK/UXGajqdx+hI7ENCXEQdW5pVcWRAsSGxPLYAgCySnyHSUdq0U2pu1qAtB1vuIr098frJlK5SxWCzUgyxnHNu62ptrYbaH50YHEwXt7l9D2TP/mIS5kNNsOXRtDJWrlaZLRqRji1qrjgiM1TSlUXPRQAAjLwNkab1rtOMJzNKm7Szollltitwy+mKDFsinW2MmPBmuxDNNF9fwVJap4bKSjX4SdgJFP7tKaiVjrhn9WbR/iI981gO1cYfI9NKbrqs7WJz8tSTzc7HnC5/HTPelccWAJBd8idEpvp6FNNVaOtiY9CcaaCz01s3eJnJ5oNdiH79bEp1W/qeVLMC4yATujYD3Zrzsb8IKXDijDvZLuvY4+4ExuBj6D++PLYAgCySxy2R+cU9oWYnoQEAAGQHQmSOMC2p8fFxKVoqAQAA5hAhEgAAAKERIgEAABAaIRIAAAChESLn2JUrV+xcdsi2/QFyAa8bACBEAgAAYBoIkQAAAAiNEAkAAIDQCJEAAAAIjRAJAACA0AiRAAAACI0QCQAAgNAIkQAAAAiNEAkAAIDQFnCIjKijqkAFjX22PE19jSooqFJHxJZvRqRDVVUdzp7NM/c2OfeNM93s3QMAAPLTgg2RkY4taq44omhnja0JIRj2ajoVPVKh5i1ZEP5mRJ8aa4fUPhJVNBrVdO4eAACQ/xZoiOzTk81S+6MzlJBqHlW7mvVkPrTaRc5qSBVaVWrLAAAAKWR9iIx0VMW6VhO7jfvUGKtP0e1qWgsLGp21fGZ9W+47rK7KBtX5Qcld19+WXSe5azlWjqhjS7MGB5tV5qxf5e5QqeoaKjV0dhptkcHrLnO2a6sT98nebncfGtVouuHtspntbnbuI3cfulRrtr+2Xmud29zRaK4rcL8k75cr8fEoMPdV7D6zguW0t8+/Pm+K377kx9sbjpC4fIaGFQAAgCllfYgsbRpwu1XdyXQbu819JkDUSkdsfapu19Im7dzepcN+yDDBcftGmdUiZ4dU2VDnRD93gRucKuy2RtqHVDtpMitV0/52VVa2a8RZf6DJ20rpqgoNnh5x5zOXeN3REWe7sfrT2mlvW3SkQT1+d/ngkFbvt/VHtqurNhiUb1aNOs0+2NsW7Vmv5U5YPr3RXF+nszTdfiU9HrHbkc5kt8+/Pmcyt293iu07U2eN8zjsdJb7D7D7+O6UfTgAAMAsy/7u7GCLVW2XNHRWkUivetSuqXqjazbGQ0bf4aHU3dem+9YJTf6i0roGVXYdDh/Mylar0uybLWYk6bpj3C5l2xpoJtM6OHhabkQNtqDWbNR2Z83pNIBmLLh/afdrRKcHt2vjFI9HzKS3L3B95j41f9M93ub228eq73CXtme8AwAA4GZld4g0AbKsRw32JI+pW7iSmLGKQyZk9OnwUCB8zYaR0xqsWGVbN2eA3xoYm0xLYBaYqf2ake3UaKPb2uw8vl0hQiwAALhp2d8SGWh5i/T2eGMGS+vUkOpEFrfVMti9a8YqDulw42ENxbqvbddzT6/Xali6ShWD8W2512G7veW3jjli1+0LLDPcLvLVZbaUIfe6e9RrWxLjty9xn9JKHts529LuV5lWVwaGDgSlug8zvX2+dI+3o+bRdg3V1mqo/dHsCNkAACwQ2R0izbjGCu8EFtPtueV0hW2J9MYlDtXa7lBnSjeM0XRPD3VJO4OD5Uw3aCy8eeMA/W2VNVfoiBlg6Vz3fjM+csJ1O+x4S7PMO7Emot6eQVWEPqXZuW4zzrMs+ToS98md/BNSnPDl3x8FZpjgQNPMtX5OKd1+JT0epnvarJ72Ppzk9qU0yeNtAmZlpRrmLEkDAACj4NKFZ6Pj49d19eo1Pd3do11tT9hFUxsbG9PKlSttaXLnzp1TSUmJLaW3+/G92vmZHbY0e8xZ32Wnd07veyKTmS/n3r1aIxkEurNnz2rVqlW2FJJpad0i7Z/B4HhT+5POLOxnWiHue2CmmNdNz6FvZXSsSnfsy7ZjIoDskulrP9NjiTE8PKyioiJbytyu1sf08EO1Wr58mZYuLXSnwsLCHOjOniWlTfvVPlQ7M79YY76cez8hZj64J9Ts5L4HAGCuLdgQ6XaRDkRvviXS/GJNdGBuvlqmtEkDudDiNof7WdPJr+oAADAfFnCIBAAAwHQRIgEAABAaIRIAAAChESIBAAAQGiESAAAAoREiAQAAEBohEgAAAKFl5S/WNNT/vi0BQHbiF2sAzKZc+MWaBfuzh/NlVn5m8CZk2/4AuYCfPQQw23IhRNKdDQAAgNAIkQAAAAiNEAkAAIDQCJEAAAAIjRAJAACA0AiRAAAACI0QCQAAgNAIkQAAAAiNEAkAAIDQciNE9jWqoKDAnRr7bN1CFOlQVVWHIrYIAAAwX3IgRPapsXZI7SNRRaNRddbY6nyQjaHQ7JMN7Gaq6vD3znkcYvWNTsmXrh4AAOSz7A+RkbMaUoVWldpyPilt0sBAk7Lqpo2cVsURL7BHo0dU0bxFJkf2NdZKtn6kfUi1tkk4XT0AAMhvWR4i+9RY1qxBdanWtHStrdfaqg51NAZavRJazqrcwOMJtpA5k2nxS275C5ZTbccu967Pm+IZKXH7jX0RdVQlLw/uTwr+9U92PcH9cu8LK+3+NqrR2Y8J28lUTWegtbdMqyvN3z4d7tqujba+tK5BlUNnnfstXT0AAMh3WR4ia9Q50q7KynaNmJaxnvVaPtis0xtNy1ens9SEzNPa6baaOdNIg3q2mFBoAl28hSxqtmG3mFq67Thi1+dMR7ara3eK7TtTZ02pmnY6yw/b1NZ3WF3bd6op02bGlNdj9qs53jIYux2T7e+QVu+39WY7tTfRxRzpVY8aVJd8G0pXqWLwtEZsMSZdPQAAyDu5cWJNkBMoH/VbytyubttKaSbTUueGmBGdHoy3kE0p7XYcwesrW+2FODdcBep9NRu1veuwG9r6Dndpe8Y74Eh5Pc5+Bet9k+5vIPSZ/XHWPDutpkETVJ0IuT/LutsBAEBWyL0QmcxvpYxNpoVyGmZkOzXauL1Lh/sSu3lnxUzd7pScAFmwW6tHBlK3pLrhdrXKbDEmXT0AAMg7uR0i3e7TZj05ob/WjOUzYc4WgwLdrZHeHm+MYdrtpFFapwalXr/m0XYN1dZqqP3Rmw917n71qNe2JIbeX9OlHmyZzIQ71jI5QPrh2Cu5+1GxSqVp6wEAQL7L8ZZIb8zkUK3t1jWTe6JMqZr2B+r9E1JKm7TfnEFs191yusKOMUy3nXSStu9MsRNYTMCsrFRDqOSWjrNfRyrUXOZdR0b764TLMr/ODNsMefa3F1QHY9dpJvM1PzWdR+TccW65rLlCR+zZN+nqAQBAfiu4dOHZ6Pj4dV29ek1Pd/doV9sTdtHUxsbGtHLlSlua3Llz51RSUmJL6e1+fK92fmaHLc0Q07q2Rdo/F1+nY74YffdqjaS5rrNnz2rVqlW2NMOmcTtndX+APGVeNz2HvpXRsSrdsW9ej4kAsl6mr/1MjyXG8PCwioqKbClzu1of08MP1Wr58mVaurTQnQoLC/NgTGSWcU+o2cnJKAAAIL8tjBA5h1/qXdM5j7+qk41fXg4AAPISLZEAAAAIjRAJAACA0AiRAAAACI0QCQAAgNAIkQAAAAiNEAkAAIDQCJEAAAAILSt/saah/vdtCQCyE79YA2A25cIv1iyMnz0EgBl2swd4jokAJpMLIZLubAAAAIRGiAQAAEBohEgAAACERogEAABAaIRIAAAAhEaIBAAAQGiESAAAAIRGiAQAAEBohEgAAACERogEAABAaIRIAAAAhEaIBAAAQGiESAAAAIRGiAQAAEBohEgAAACERogEAABAaIRIAAAAhEaIBAAAQGiESAAAAIRGiAQAAEBohEgAAACERogEAABAaIRIAAAAhEaIBAAAQGiESAAAAIRGiAQAAEBohEgAAACERogEAABAaIRIAAAAhEaIBAAAQGiESAAAAIRGiAQAAEBohEgAAACERogEAABAaIRIAAAAhEaIBAAAQGiESAAAAIRGiAQAAEBohEgAAACERogEAABAaIRIAAAAhEaIBAAAQGiESAAAAIRGiAQAAEBohEgAAACERogEAABAaIRIAAAAhEaIBAAAQGiESAAAAIRGiAQAAEBohEgAAACERogEAABAaIRIAAAAhEaIBAAAQGiESAAAAIRGiAQAAEBohEgAAACEVnDpwrPR8fHrunr1mp7u7tGutifsoqmNjY1p5cqVtjS5c+fOqaSkxJbS2/34Xu38zA5bAoDslOmxKt2xL8wxEcDCdDPHmFSGh4dVVFRkS5nb1fqYHn6oVsuXL9PSpYXuVFhYSIgEgOmYqxAJAJOZzxBJdzYAAABCI0QCAAAgNEIkAAAAQiNEAgAAIDRCJAAAAEIjRAIAACA0vuIHAKZhLr/i5+DBg3YOwEKxadMmOze5+fyKH0IkAEzDXIfIdevW2RKAfHfixImcCJF0ZwMAACA0QiQAAABCI0QCAAAgNEIkAAAAQiNEAgCwEIx2q76+W6O2CNwsQiQAAJkyQWzFCtV3B6LYLISz0e56rXCux58Srg/IEoRIAADCWLtZ5b3Nmq1cZwLk+t46Hb94URfd6bjqIkdpQUTWIUQCABBKqRofKVdb5zFbDrAtlV4LYr0XNIMtle7yFnmXHFV3vT/vO6bONqm1fZuKbY2cuW17nLLdTneL2bZ3ucQWy+D1tail3q9foZbAlRx1Lz+xHgiLEAkAQFjVe7RPW5NC2DG1rI/oEb8F8Xidepud8Fh8r8pPRnTBWWP0aK/KN0v97uUuKOIE0nvMrG/0vM6srdMD8QSZ6GSbIhvM9veo2ikWbztkWyudaV8g2J48o9J2v36zDmy1YTV2eVv/FGMkMX2ESAAApqG6sVVngiHMBEAd0FbbyrdifZtOuuGxWhs2n9F5Z8ULkXJtaCzVGZMizfrl9wZaHJOZlkq7Lb8lc22rGk169AVbPrcekM6ct+sFgmj1Bm129uz8i8588PL3lGqtnQWmgxAJAMB0FG9Te12vOo/asuGEtPhYRjN5LYZOXlPkwjH1nynVPcUPqO5Mv45diKh8QzAROtxWy14ddZNgsbYdcrZxvDV12DMBcn2v6o7b60q3HjBLCJEAAExT8bZHpLY2nXQLJgC2KdVQyeIH6qSnntKZugecaFgsU+zvl0oT+rKNajW2Ops03eC2ZlKBFkfTVe7uR7Jj/Tpg1rvLloEZQogEAGDaqrVn3+b4/PFWndlqu5eD3dBOwDQJr84mPlM8cKY05dhHM87xeF2v1vvbWN9mLjix27t4mx4pb4ut1xwpj7dEOmE2dvmt0r5DwRN1gJlRcOnCs9Hx8eu6evWanu7u0a62J+yiqY2NjWnlypW2NLlz586ppKTEltLb/fhe7fzMDlsCgOyU6bEq3bEv02OicfDgQa1bt86WgCmYbu5mqZ3gmLNOnDihTZs22dLkwhxLhoeHVVRUZEuZ29X6mB5+qFbLly/T0qWF7lRYWEhLJAAAAMIjRAIAkE+Kt+kQrZCYA4RIAAAAhEaIBAAAQGicWAMA0zDXJ9YAWFhy4cQaQiQATMNchkgASGc+QyTd2QAAAAiNEAkAAIDQCJEAAAAIjRAJAACA0AiRAAAACI0QCQAAgNAIkQAAAAiN74kEgGngy8YBzCa+bDyAEAkgn8x1iFy3bp0tAch3J06cyIkQSXc2AAAAQiNEAgAAIDRCJAAAAEIjRAIAACA0QiQAADNltFv19d0atcWsl2v7i6xCiAQAIBUTsFas0IrA1HLMLrsZ0wxuo931CftS3030w/wiRAIAkM7aVh2/eFEXzXS8VWe2zlCQDMkEyPW9dfF9uXhcdZGjtCBiXhEiAQDIRPE2HTJB8inbipjQUlmvCQ2DKZePqru5TSdPtmm935o41XZ0TJ1tUmv7NhXbGmdntG2PU7atmt0t5rItzppe4PRbK2Pbc9drUUu9X58Yho+6l59YD0yGEAkAQKaK71X5yYguOHGtZX1Ej8RaKevU2xzsok633Al/7a1aa1s4D227MMV2HKPndWZtnR6IJ8hETiCNbDCX36Nqp1i87ZC3LTPtK1dbp02FJ8+otN2v36wDW73QGb+8rfdDMjAFQiQAAGGZYKcD2mpb71asN62LJlxaUy33ZbpezKi6/dZEf1ylE0gbTXr0BVs2tx6Qzpy36wWCaPUGbXau+fyLznzw8veUaq2dBaZCiAQAIFNuq2Cp7jHzwfGS7uS1BMZMtdw31Xpu62evjrpJsFjbDjnrHG9NHfZMgFzfq7rjdlvp1gNmACESAICMmC7qNpU/sk3FbrBrk99TPMFUy/3WxqnWc1WrsVVqS+7mTifQ4jh6tFcnvdlEx/p1wKx3ly0D00CIBAAgHSfgmRNg3K7hFU+p9PhF7XGbCau1x56t7S1zpoSv7ZlkefE2PbLZ68Ku775niu14zDjH43W98X1xwqzqHgicaGOZbZfH97k5Uh5viQzelq3SvkPBE3WA8AouXXg2Oj5+XVevXtPT3T3a1faEXTS1sbExrVy50pYmd+7cOZWUlNhSersf36udn9lhSwCQnTI9VqU79mV6TDQOHjyodevW2RIwDaabu1lqJzjmhBMnTmjTpk22NLkwx5Lh4WEVFRXZUuZ2tT6mhx+q1fLly7R0aaE7FRYW0hIJAACA8AiRAADkO/Mdl7RCYoYRIgEAABAaIRIAAAChcWINAEzDXJ9YA2BhyYUTa7IyRAJALpirEAkA6RAiASBPESIBzKb5DJGMiQQAAEBohEgAAACERogEAABAaIRIAAAAhEaIBAAAQGiESAAAAIRGiAQAAEBoc/o9kQCwEKX7nkgAmAnz9T2RcxYiAQAAMH/4snEAAADMO0IkAAAAQiNEAgAAIDRCJAAAAEIjRAIAACA0QiQAAABCI0QCAAAgNEIkAAAAQiNEAgAAIDRCJAAAAEIjRAIAACC0m/7tbAAAAOSGmfzt7JsKkQAAAMhv6UIk3dkAAAAIjRAJAACA0AiRAAAACI0QCQAAgNAIkQAAAAiNEAkAAIDQCJEAAAAIjRAJAACA0AiRAAAACI0QCQAAgNAIkQAAAAiNEAkAAIDQCi5deDY6Pn5dV69e09PdPdrV9oRdNH13PP6ynQOQ7NXPvNPOTXT06FE7ByDogQcesHMT8boB0pvstZOpXa2P6eGHarV8+TItXVroToWFhYRIYK5NFSLXrVtnSwCMEydOTBkied0AE0312snUvITIi3/6VvcvAGnF3/27+5cQCYRDiASmZ7ZDJGMiAQAAEBohEgAAAKERIgEAABAaIRIAMjXarfr6bo3aIoAZwmsrJxEi88hod71WrFgRm+q77csx+cV5rMVd3nLMloEFYVTd9c5rgzcqYGr2fSI28YaBFAiRecIEyPW9dTp+8aIuutM+lbetjwdJnwmUW8+o9fhF7am2dcBCMHpUvdrs/OvVUVIkkJbbILFV2hd7P7mofeoXMRLJCJF54Zg626TW9m0qtjVStfYcb5V6j8ZbXUyAXN+ruuOHtC2+IrAgjB7tleoataH8pPOysK8Kt5W+RS2mhdK2uLgNLunqY7xWzXjdMbWsqFfyZzYg94zKvFRaj+9x3kXiqvd45cQeL/uct71d3S2pXi/mtZFUb9aP1fG6yWWEyHwwel5n1tbpgeRgWHyvyk9GdMEt9KqZAIkFy3tjrHNeJNUbNutk8MPVyTMqbbctLvs268DWFq/FJV29q1jbHnHq+m3NsX4d2PwIry3kPtNif7Jc96Z5LhdvOxRrnby4r1xtnfY1cLJNkQ2B18tTZtiI+bDlNmnGLrOn2gmV6yN6xN/G8Tr1NjPEJFcRIheKk84baKvzgufFioXI7cq2H7SqN2jzyUCXdvADmFmmMzr/ojOfrt5n6g54XXzH+g9o8wbGhyBPrC3VPXZ2gmAr4tYD0pnz3nvK2lY1+i+Be0q11vx1X3eBesM0euiAtvrbWN+mk7HGDuQaQmQ+cFscU4zzclso7cHAvCFu26Pjdb1an9gvB+Q905V98mSb1rtvXFudt7BAl/a0VWvD5gPqP3ZM/Qc2iwyJvJDu/cQwAdLt0fJbEVu9sBiWEzjj4/fNlNh1jtxBiMwL1WpsVVIro+kyaDP9d4FxkqYrol2tZ7ZOPOEGyFumK/ukNge61Ex3W0KXts90S5sPXHfZsi9NfbXzwjuzdavOtDbyJog8Yd9P1geHbzgvgRZbDrTQux/OvNnUih9Qndrk93i73JCaVIecRYjME2acitvK6HcReKfW6dCEQVrF2nYozZnbQD5K1aXmd2mb7ulYC6UzmZfNIXuCWrr6IPMmuXatO9YSyBfu+0nrmXiXszNt1QZVF2/TI+Xx10VzpHyKlkjn/abdfNCKb6flmHfSZ7COr93KXQWXLjwbHR+/rqtXr+np7h7tanvCLpq+Ox5/2f178U/f6v4FIK34u393/776mXe6f1M5evSo1q1bZ0uYdaZ7rllqTw6I6eqTme/Se6pUx6daDzflxIkTeuCBB2xpIl43QGpTvXYytav1MT38UK2WL1+mpUsL3amwsJCWSACYLveEmkcIkAAWJkIkgIWreJsOpeymTlOfpHoPX9oPYOEiRAIAACC0WR0TCWAixkQC4TAmEpie2R4TSYgE5thUIRLARFOFSACp5VyIBAAAQH7g7GwAAADMGEIkAAAAQiNEAgAAIDRCJAAAAEKLhchoNGrnAAAAgNRMZjSTGyIJkAAAAEjHD47BzEh3NgAAAEIjRAIAACA0N0QWFBS4BQAAACCZyYr+5Iu1RBIkAQAAMBU/TNKdDQAAgEmZtkY/PPoNj7REAgAAYFJeeEwMkouCBQAAACDZokWLEgKkiY1uiPQXAAAAAMmC4dGfX7SowAuQzoxdDQAAAIgzDY6LFy92p1iI9AOkWQgAAAAkW7x4kZsVY7nRNEK+8tLJ6Btv3ND49evqeGqfXRUAAADw/Mm2BhUWLnGmQi1ZslhLFi9Rwc9+8iM3RL5x4w1dv26m67px401nuuH+ffNNbzK/lRj/G//9xOBvKAIAACC3+N3Tfiuj99dreTTd1yY0mgC5ZIk/LdbiRYtV8IufPhf1A6MJkiZQmrIJjH6I9AOkHx7NvEGIBAAAyG1+gDSCXdYmQHpB0g+TS7x5J0CavwW/fGUo6gVGL0jeeDMxQJrJC47BlkhCJAAAQD5IHSK98Bif94KjGQvphUvnMq/+7MdODozGWh/9sGjCpBcYE8Oj+etNXogEAABA7gjmNz88ekEyHihNcIwHShskF3ktk3654PIvXnBbIv2Q6E2B4Bj1l/nhceIEAACA3OQHx+QpNj4y9nWQ8QDphsgr//aCmwODQdL/GwyOfpj0pniK9f8CAAAg95iA6P81s97feHh05/3WR3fe1r/+y9NODvSCoR8gzZQ474dHZzL/nL+G/xcAAAC5IZjfTBhM/uv+M3+dyW+N9OaDoXKR/n8NnGqa92SrUgAAAABJRU5ErkJggg==;" vertex="1" parent="1">
          <mxGeometry x="85" y="110" width="657" height="533" as="geometry" />
        </mxCell>
        <mxCell id="GKyrWgscZpLBKZ8RzpGq-8" style="edgeStyle=orthogonalEdgeStyle;rounded=0;orthogonalLoop=1;jettySize=auto;html=1;exitX=1;exitY=0.5;exitDx=0;exitDy=0;entryX=0;entryY=0.5;entryDx=0;entryDy=0;fillColor=#f8cecc;strokeColor=#b85450;strokeWidth=2;" edge="1" parent="1" source="GKyrWgscZpLBKZ8RzpGq-2" target="GKyrWgscZpLBKZ8RzpGq-6">
          <mxGeometry relative="1" as="geometry" />
        </mxCell>
        <mxCell id="GKyrWgscZpLBKZ8RzpGq-2" value="Filter by Schematic" style="rounded=1;whiteSpace=wrap;html=1;fillColor=#f8cecc;strokeColor=#b85450;fontStyle=1" vertex="1" parent="1">
          <mxGeometry x="-110" y="310" width="180" height="20" as="geometry" />
        </mxCell>
        <mxCell id="GKyrWgscZpLBKZ8RzpGq-7" style="edgeStyle=orthogonalEdgeStyle;rounded=0;orthogonalLoop=1;jettySize=auto;html=1;exitX=1;exitY=0.5;exitDx=0;exitDy=0;entryX=0;entryY=0.5;entryDx=0;entryDy=0;fillColor=#f8cecc;strokeColor=#b85450;strokeWidth=2;" edge="1" parent="1" source="GKyrWgscZpLBKZ8RzpGq-3" target="GKyrWgscZpLBKZ8RzpGq-5">
          <mxGeometry relative="1" as="geometry" />
        </mxCell>
        <mxCell id="GKyrWgscZpLBKZ8RzpGq-3" value="Filter by Simulation Backend" style="rounded=1;whiteSpace=wrap;html=1;fillColor=#f8cecc;strokeColor=#b85450;fontStyle=1" vertex="1" parent="1">
          <mxGeometry x="-110" y="340" width="180" height="20" as="geometry" />
        </mxCell>
        <mxCell id="GKyrWgscZpLBKZ8RzpGq-10" style="edgeStyle=orthogonalEdgeStyle;rounded=0;orthogonalLoop=1;jettySize=auto;html=1;exitX=1;exitY=0.5;exitDx=0;exitDy=0;entryX=0;entryY=0.5;entryDx=0;entryDy=0;fillColor=#f8cecc;strokeColor=#b85450;strokeWidth=2;" edge="1" parent="1" source="GKyrWgscZpLBKZ8RzpGq-4" target="GKyrWgscZpLBKZ8RzpGq-9">
          <mxGeometry relative="1" as="geometry" />
        </mxCell>
        <mxCell id="GKyrWgscZpLBKZ8RzpGq-4" value="Available Variables&lt;div&gt;&lt;br&gt;&lt;/div&gt;&lt;div&gt;&lt;span style=&quot;font-weight: 400;&quot;&gt;Both raw simulation data (voltages, currents, etc) &lt;i&gt;and &lt;/i&gt;custom equation outputs will be listed here.&lt;/span&gt;&lt;/div&gt;&lt;div&gt;&lt;span style=&quot;font-weight: 400;&quot;&gt;&lt;br&gt;&lt;/span&gt;&lt;/div&gt;&lt;div&gt;&lt;span style=&quot;font-weight: normal;&quot;&gt;Double-click a variable to add it to this diagram.&lt;/span&gt;&lt;/div&gt;" style="rounded=1;whiteSpace=wrap;html=1;arcSize=4;fillColor=#f8cecc;strokeColor=#b85450;fontStyle=1" vertex="1" parent="1">
          <mxGeometry x="-110" y="380" width="180" height="170" as="geometry" />
        </mxCell>
        <mxCell id="GKyrWgscZpLBKZ8RzpGq-5" value="" style="rounded=0;whiteSpace=wrap;html=1;fillColor=none;strokeWidth=3;strokeColor=#FF0000;" vertex="1" parent="1">
          <mxGeometry x="110" y="340" width="320" height="20" as="geometry" />
        </mxCell>
        <mxCell id="GKyrWgscZpLBKZ8RzpGq-6" value="" style="rounded=0;whiteSpace=wrap;html=1;fillColor=none;strokeWidth=3;strokeColor=#FF0000;" vertex="1" parent="1">
          <mxGeometry x="110" y="300" width="320" height="40" as="geometry" />
        </mxCell>
        <mxCell id="GKyrWgscZpLBKZ8RzpGq-9" value="" style="rounded=0;whiteSpace=wrap;html=1;fillColor=none;strokeWidth=3;strokeColor=#FF0000;" vertex="1" parent="1">
          <mxGeometry x="110" y="360" width="320" height="210" as="geometry" />
        </mxCell>
        <mxCell id="GKyrWgscZpLBKZ8RzpGq-11" value="Step 1:&lt;div&gt;Add variables from your Dataset to this Diagram.&lt;/div&gt;" style="text;strokeColor=none;align=right;fillColor=none;html=1;verticalAlign=middle;whiteSpace=wrap;rounded=0;fontSize=15;fontStyle=1" vertex="1" parent="1">
          <mxGeometry x="-150" y="245" width="220" height="60" as="geometry" />
        </mxCell>
        <mxCell id="GKyrWgscZpLBKZ8RzpGq-13" value="" style="rounded=0;whiteSpace=wrap;html=1;fillColor=none;strokeWidth=3;strokeColor=#007FFF;" vertex="1" parent="1">
          <mxGeometry x="440" y="290" width="270" height="210" as="geometry" />
        </mxCell>
        <mxCell id="GKyrWgscZpLBKZ8RzpGq-15" value="Step 2:&lt;div&gt;Select a variable after it&#39;s added to your diagram.&lt;/div&gt;" style="text;strokeColor=none;align=left;fillColor=none;html=1;verticalAlign=middle;whiteSpace=wrap;rounded=0;fontSize=15;fontStyle=1" vertex="1" parent="1">
          <mxGeometry x="760" y="260" width="220" height="60" as="geometry" />
        </mxCell>
        <mxCell id="GKyrWgscZpLBKZ8RzpGq-17" style="edgeStyle=orthogonalEdgeStyle;rounded=0;orthogonalLoop=1;jettySize=auto;html=1;exitX=0;exitY=0.5;exitDx=0;exitDy=0;entryX=1;entryY=0.5;entryDx=0;entryDy=0;fillColor=#dae8fc;strokeColor=#6c8ebf;strokeWidth=3;" edge="1" parent="1" source="GKyrWgscZpLBKZ8RzpGq-16" target="GKyrWgscZpLBKZ8RzpGq-13">
          <mxGeometry relative="1" as="geometry" />
        </mxCell>
        <mxCell id="GKyrWgscZpLBKZ8RzpGq-16" value="List of Variables added to this Diagram&lt;br&gt;&lt;div&gt;&lt;br&gt;&lt;/div&gt;&lt;div&gt;&lt;span style=&quot;font-weight: 400;&quot;&gt;Single-click to select a variable.&lt;/span&gt;&lt;/div&gt;" style="rounded=1;whiteSpace=wrap;html=1;arcSize=4;fillColor=#dae8fc;strokeColor=#6c8ebf;fontStyle=1" vertex="1" parent="1">
          <mxGeometry x="760" y="331.25" width="240" height="127.5" as="geometry" />
        </mxCell>
        <mxCell id="GKyrWgscZpLBKZ8RzpGq-23" style="edgeStyle=orthogonalEdgeStyle;rounded=0;orthogonalLoop=1;jettySize=auto;html=1;exitX=0;exitY=0.5;exitDx=0;exitDy=0;entryX=1;entryY=0.5;entryDx=0;entryDy=0;strokeWidth=3;fillColor=#dae8fc;strokeColor=#6c8ebf;" edge="1" parent="1" source="GKyrWgscZpLBKZ8RzpGq-19" target="GKyrWgscZpLBKZ8RzpGq-21">
          <mxGeometry relative="1" as="geometry" />
        </mxCell>
        <mxCell id="GKyrWgscZpLBKZ8RzpGq-19" value="Duplicate Selected Variable on Graph" style="rounded=1;whiteSpace=wrap;html=1;fillColor=#dae8fc;strokeColor=#6c8ebf;fontStyle=1" vertex="1" parent="1">
          <mxGeometry x="760" y="510" width="240" height="20" as="geometry" />
        </mxCell>
        <mxCell id="GKyrWgscZpLBKZ8RzpGq-24" style="edgeStyle=orthogonalEdgeStyle;rounded=0;orthogonalLoop=1;jettySize=auto;html=1;exitX=0;exitY=0.5;exitDx=0;exitDy=0;entryX=1;entryY=0.5;entryDx=0;entryDy=0;strokeWidth=3;fillColor=#dae8fc;strokeColor=#6c8ebf;" edge="1" parent="1" source="GKyrWgscZpLBKZ8RzpGq-20" target="GKyrWgscZpLBKZ8RzpGq-22">
          <mxGeometry relative="1" as="geometry" />
        </mxCell>
        <mxCell id="GKyrWgscZpLBKZ8RzpGq-20" value="Delete Selected Variable from Graph" style="rounded=1;whiteSpace=wrap;html=1;fillColor=#dae8fc;strokeColor=#6c8ebf;fontStyle=1" vertex="1" parent="1">
          <mxGeometry x="760" y="540" width="240" height="20" as="geometry" />
        </mxCell>
        <mxCell id="GKyrWgscZpLBKZ8RzpGq-21" value="" style="rounded=0;whiteSpace=wrap;html=1;fillColor=none;strokeWidth=3;strokeColor=#007FFF;" vertex="1" parent="1">
          <mxGeometry x="440" y="505" width="270" height="30" as="geometry" />
        </mxCell>
        <mxCell id="GKyrWgscZpLBKZ8RzpGq-22" value="" style="rounded=0;whiteSpace=wrap;html=1;fillColor=none;strokeWidth=3;strokeColor=#007FFF;" vertex="1" parent="1">
          <mxGeometry x="440" y="535" width="270" height="30" as="geometry" />
        </mxCell>
        <mxCell id="GKyrWgscZpLBKZ8RzpGq-26" value="Step 3:&lt;div&gt;Edit the Properties of your selected variable&#39;s trace on the graph.&lt;/div&gt;" style="text;strokeColor=none;align=left;fillColor=none;html=1;verticalAlign=middle;whiteSpace=wrap;rounded=0;fontSize=15;fontStyle=1" vertex="1" parent="1">
          <mxGeometry x="118.5" y="50" width="481.5" height="60" as="geometry" />
        </mxCell>
        <mxCell id="GKyrWgscZpLBKZ8RzpGq-27" value="" style="rounded=0;whiteSpace=wrap;html=1;fillColor=none;strokeWidth=3;strokeColor=#00CC00;" vertex="1" parent="1">
          <mxGeometry x="100" y="185" width="620" height="95" as="geometry" />
        </mxCell>
        <mxCell id="GKyrWgscZpLBKZ8RzpGq-28" value="Step 4:&lt;div&gt;Configure additional options (axis labels, axis scales, limits)&lt;/div&gt;" style="text;strokeColor=none;align=left;fillColor=none;html=1;verticalAlign=middle;whiteSpace=wrap;rounded=0;fontSize=15;fontStyle=1;strokeWidth=3;" vertex="1" parent="1">
          <mxGeometry x="750" y="137.5" width="260" height="60" as="geometry" />
        </mxCell>
        <mxCell id="GKyrWgscZpLBKZ8RzpGq-31" style="edgeStyle=orthogonalEdgeStyle;rounded=0;orthogonalLoop=1;jettySize=auto;html=1;exitX=1;exitY=0.5;exitDx=0;exitDy=0;entryX=0;entryY=0.5;entryDx=0;entryDy=0;strokeWidth=3;fillColor=#e1d5e7;strokeColor=#9673a6;endArrow=none;startFill=1;startArrow=classic;" edge="1" parent="1" source="GKyrWgscZpLBKZ8RzpGq-30" target="GKyrWgscZpLBKZ8RzpGq-28">
          <mxGeometry relative="1" as="geometry" />
        </mxCell>
        <mxCell id="GKyrWgscZpLBKZ8RzpGq-30" value="" style="rounded=0;whiteSpace=wrap;html=1;fillColor=none;strokeWidth=3;strokeColor=#990099;" vertex="1" parent="1">
          <mxGeometry x="150" y="160" width="120" height="15" as="geometry" />
        </mxCell>
        <mxCell id="GKyrWgscZpLBKZ8RzpGq-32" value="&lt;b&gt;&lt;font&gt;Configuring Diagram Properties in Qucs-S&lt;/font&gt;&lt;/b&gt;" style="text;strokeColor=none;align=center;fillColor=none;html=1;verticalAlign=middle;whiteSpace=wrap;rounded=0;fontSize=33;" vertex="1" parent="1">
          <mxGeometry x="25" width="770" height="30" as="geometry" />
        </mxCell>
        <mxCell id="GKyrWgscZpLBKZ8RzpGq-33" style="edgeStyle=orthogonalEdgeStyle;rounded=0;orthogonalLoop=1;jettySize=auto;html=1;exitX=0;exitY=0.5;exitDx=0;exitDy=0;entryX=0;entryY=0.087;entryDx=0;entryDy=0;entryPerimeter=0;endArrow=none;startFill=1;startArrow=classic;strokeWidth=3;fillColor=#d5e8d4;strokeColor=#82b366;" edge="1" parent="1" source="GKyrWgscZpLBKZ8RzpGq-27" target="GKyrWgscZpLBKZ8RzpGq-25">
          <mxGeometry relative="1" as="geometry">
            <Array as="points">
              <mxPoint x="60" y="233" />
              <mxPoint x="60" y="81" />
            </Array>
          </mxGeometry>
        </mxCell>
      </root>
    </mxGraphModel>
  </diagram>
</mxfile>
